HIERARCHY
ROOT Hips
{
	OFFSET 0.00 0.00 0.00
	CHANNELS 6 Xposition Yposition Zposition Xrotation Yrotation Zrotation
	JOINT Spine
	{
		OFFSET 0.00000 1.70439 2.55658
		CHANNELS 3 Xrotation Yrotation Zrotation
		JOINT Spine1
		{
			OFFSET 0.00000 0.59193 3.35699
			CHANNELS 3 Xrotation Yrotation Zrotation
			JOINT Spine2
			{
				OFFSET 0.00000 0.29710 3.39581
				CHANNELS 3 Xrotation Yrotation Zrotation
				JOINT Spine3
				{
					OFFSET 0.00000 0.00000 3.40878
					CHANNELS 3 Xrotation Yrotation Zrotation
					JOINT Neck
					{
						OFFSET 0.00000 -1.27828 8.94804
						CHANNELS 3 Xrotation Yrotation Zrotation
						JOINT Head
						{
							OFFSET 0.00000 -0.81390 4.61586
							CHANNELS 3 Xrotation Yrotation Zrotation
							End Site
							{
								OFFSET 0.00000 0.00001 5.51796
							}
						}
					}
					JOINT RightShoulder
					{
						OFFSET -1.18875 -1.98124 6.41925
						CHANNELS 3 Xrotation Yrotation Zrotation
						JOINT RightArm
						{
							OFFSET -5.90412 0.00000 0.00000
							CHANNELS 3 Xrotation Yrotation Zrotation
							JOINT RightForeArm
							{
								OFFSET -11.94674 0.00000 0.00000
								CHANNELS 3 Xrotation Yrotation Zrotation
								JOINT RightHand
								{
									OFFSET -10.17720 0.00000 0.00000
									CHANNELS 3 Xrotation Yrotation Zrotation
									JOINT RightHandEnd
									{
										OFFSET -2.84518 0.00000 0.00000
										CHANNELS 3 Xrotation Yrotation Zrotation
										End Site
										{
											OFFSET -2.84518 0.00000 0.00000
										}
									}
									JOINT RightHandThumb1
									{
										OFFSET -1.13807 -1.89679 -0.75871
										CHANNELS 3 Yrotation Xrotation Zrotation
										End Site
										{
											OFFSET -2.74823 -0.73639 0.00000
										}
									}
								}
							}
						}
					}
					JOINT LeftShoulder
					{
						OFFSET 1.18875 -1.98124 6.41925
						CHANNELS 3 Xrotation Yrotation Zrotation
						JOINT LeftArm
						{
							OFFSET 5.90412 0.00000 0.00000
							CHANNELS 3 Xrotation Yrotation Zrotation
							JOINT LeftForeArm
							{
								OFFSET 11.94674 0.00000 0.00000
								CHANNELS 3 Xrotation Yrotation Zrotation
								JOINT LeftHand
								{
									OFFSET 10.17720 0.00000 0.00000
									CHANNELS 3 Xrotation Yrotation Zrotation
									JOINT LeftHandEnd
									{
										OFFSET 2.84518 0.00000 0.00000
										CHANNELS 3 Xrotation Yrotation Zrotation
										End Site
										{
											OFFSET 2.84518 0.00000 0.00000
										}
									}
									JOINT LeftHandThumb1
									{
										OFFSET 1.13807 -1.89679 -0.75871
										CHANNELS 3 Yrotation Xrotation Zrotation
										End Site
										{
											OFFSET 2.74823 -0.73639 0.00000
										}
									}
								}
							}
						}
					}
				}
			}
		}
	}
	JOINT RightUpLeg
	{
		OFFSET -3.52662 0.00000 -1.03025
		CHANNELS 3 Xrotation Yrotation Zrotation
		JOINT RightLeg
		{
			OFFSET 0.00001 0.00000 -17.80159
			CHANNELS 3 Xrotation Yrotation Zrotation
			JOINT RightFoot
			{
				OFFSET 0.00001 0.00000 -16.85992
				CHANNELS 3 Xrotation Yrotation Zrotation
				JOINT RightToeBase
				{
					OFFSET 0.00000 -5.42953 -1.97619
					CHANNELS 3 Xrotation Yrotation Zrotation
					End Site
					{
						OFFSET 0.00000 -2.85300 -0.00000
					}
				}
			}
		}
	}
	JOINT LeftUpLeg
	{
		OFFSET 3.52662 0.00000 -1.03025
		CHANNELS 3 Xrotation Yrotation Zrotation
		JOINT LeftLeg
		{
			OFFSET 0.00001 0.00000 -17.80159
			CHANNELS 3 Xrotation Yrotation Zrotation
			JOINT LeftFoot
			{
				OFFSET 0.00001 0.00000 -16.85992
				CHANNELS 3 Xrotation Yrotation Zrotation
				JOINT LeftToeBase
				{
					OFFSET 0.00000 -5.42953 -1.97619
					CHANNELS 3 Xrotation Yrotation Zrotation
					End Site
					{
						OFFSET 0.00000 -2.85300 -0.00000
					}
				}
			}
		}
	}
}
MOTION
Frames: 9
Frame Time: 0.008342
 1.6427 -22.5370 34.5568 -5.5837 5.1968 120.8328 11.0668 4.5404 -4.3443 4.4718 2.5327 -1.1057 3.4473 -7.3065 -18.7722 2.2667 -0.9735 -0.9587 5.0822 -5.7921 7.2924 -8.7471 3.9769 43.4171 13.0505 -24.3551 -31.5543 0.1907 -57.0109 -3.8580 0.0000 0.0000 14.3208 -18.9267 38.9374 -7.0076 -0.0000 0.0000 -0.0000 -0.0000 -0.0000 -0.0000 8.2059 -6.8682 -38.0216 26.3162 27.3974 -47.6347 -0.0000 -0.0000 -56.3253 9.3612 -20.8805 -7.3965 -0.0000 0.0000 -0.0000 -0.0000 0.0000 -0.0000 -43.8342 -5.0100 9.9102 44.4867 0.0000 0.0000 -9.0693 -8.4853 2.5241 6.3745 0.0000 0.0000 -8.7537 -13.5706 34.9384 52.6498 0.0000 0.0000 -28.7313 8.7149 15.3259 -13.1464 0.0000 -0.0000
 1.6697 -22.5319 34.4929 -5.5906 5.3189 121.0999 11.1116 4.5004 -4.3456 4.5083 2.5229 -1.1140 3.4755 -7.3301 -18.8242 2.2729 -0.9566 -0.9685 4.9728 -5.7464 7.2059 -8.8545 3.9693 43.3596 13.0381 -24.4504 -31.6041 0.0224 -57.2316 -4.0236 0.0000 0.0000 14.1572 -18.9505 38.8692 -7.0360 0.0000 0.0000 0.0000 0.0000 -0.0000 0.0000 8.3027 -6.8841 -38.0483 26.1219 27.4427 -47.4081 -0.0000 -0.0000 -56.2590 9.3551 -20.7414 -7.4579 0.0000 0.0000 0.0000 0.0000 -0.0000 0.0000 -44.1827 -4.9941 10.0723 45.1126 0.0000 0.0000 -9.5793 -8.4774 2.1237 6.5042 0.0000 0.0000 -8.9672 -13.5479 34.8280 52.8988 0.0000 0.0000 -29.1389 8.4377 15.5014 -12.8338 0.0000 -0.0000
 1.6971 -22.5282 34.4291 -5.5917 5.4245 121.4127 11.1691 4.4302 -4.3436 4.5222 2.5207 -1.1135 3.5158 -7.3413 -18.8627 2.2752 -0.9411 -0.9787 4.8703 -5.7073 7.1095 -8.9531 3.9658 43.2919 13.0266 -24.5533 -31.6486 -0.1568 -57.4320 -4.1833 0.0000 0.0000 13.9991 -18.9791 38.8004 -7.0544 0.0000 -0.0000 -0.0000 -0.0000 -0.0000 -0.0000 8.4069 -6.8938 -38.0560 25.9231 27.4965 -47.1568 -0.0000 -0.0000 -56.1748 9.3405 -20.6156 -7.5114 0.0000 0.0000 0.0000 0.0000 0.0000 0.0000 -44.5174 -4.9504 10.2001 45.7486 0.0000 0.0000 -10.0789 -8.4665 1.7308 6.6266 0.0000 0.0000 -9.1891 -13.5470 34.7211 53.1895 0.0000 0.0000 -29.5189 8.1374 15.6523 -12.5180 0.0000 -0.0000
 1.7243 -22.5257 34.3655 -5.5852 5.5268 121.7699 11.2166 4.3530 -4.3384 4.5514 2.5193 -1.1118 3.5389 -7.3597 -18.8930 2.2762 -0.9126 -0.9815 4.7722 -5.6792 7.0103 -9.0410 3.9726 43.2120 13.0050 -24.6611 -31.6864 -0.3246 -57.6024 -4.3280 0.0000 0.0000 13.8550 -19.0010 38.7296 -7.0861 0.0000 0.0000 -0.0000 0.0000 -0.0000 0.0000 8.5035 -6.8886 -38.0365 25.7338 27.5693 -46.8857 -0.0000 -0.0000 -56.0714 9.3369 -20.4947 -7.5474 0.0000 -0.0000 0.0000 0.0000 0.0000 0.0000 -44.8515 -4.8703 10.2924 46.3977 0.0000 0.0000 -10.5631 -8.4512 1.3506 6.7303 0.0000 0.0000 -9.4291 -13.5578 34.6107 53.5187 0.0000 0.0000 -29.8575 7.8340 15.7594 -12.2092 0.0000 -0.0000
 1.7508 -22.5248 34.3019 -5.5645 5.6377 122.1632 11.2590 4.3091 -4.3293 4.5677 2.4536 -1.1211 3.5721 -7.3279 -18.8991 2.2757 -0.8943 -0.9748 4.6781 -5.6533 6.9054 -9.1190 3.9864 43.1249 12.9644 -24.7568 -31.7136 -0.5216 -57.7513 -4.5091 0.0000 0.0000 13.7282 -19.0105 38.6469 -7.1054 0.0000 -0.0000 0.0000 -0.0000 -0.0000 -0.0000 8.6013 -6.8736 -37.9970 25.5354 27.6633 -46.5790 -0.0000 -0.0000 -55.9571 9.3348 -20.3779 -7.5610 -0.0000 -0.0000 -0.0000 0.0000 -0.0000 0.0000 -45.1954 -4.7495 10.3590 47.0635 0.0000 0.0000 -11.0279 -8.4330 0.9849 6.8087 0.0000 0.0000 -9.6902 -13.5697 34.4995 53.8822 0.0000 0.0000 -30.1429 7.5457 15.8015 -11.9163 0.0000 -0.0000
 1.7788 -22.5258 34.2396 -5.5464 5.7142 122.5954 11.3157 4.2238 -4.3172 4.5901 2.4373 -1.1232 3.5961 -7.3438 -18.8910 2.2723 -0.8646 -0.9702 4.5859 -5.6296 6.8048 -9.1880 4.0047 43.0287 12.9216 -24.8599 -31.7200 -0.7166 -57.8597 -4.6718 0.0000 0.0000 13.6166 -19.0082 38.5737 -7.1342 0.0000 -0.0000 -0.0000 0.0000 -0.0000 0.0000 8.6839 -6.8291 -37.9252 25.3471 27.7783 -46.2367 -0.0000 -0.0000 -55.8335 9.3407 -20.2585 -7.5478 0.0000 -0.0000 0.0000 0.0000 0.0000 -0.0000 -45.5064 -4.6174 10.3771 47.7220 0.0000 0.0000 -11.4693 -8.4096 0.6246 6.8548 0.0000 0.0000 -9.9404 -13.6277 34.3804 54.2801 0.0000 0.0000 -30.3705 7.2927 15.7505 -11.6462 0.0000 -0.0000
 1.8073 -22.5286 34.1784 -5.5206 5.7827 123.0581 11.3729 4.1522 -4.3032 4.6144 2.4036 -1.1241 3.6177 -7.3545 -18.8658 2.2697 -0.8417 -0.9619 4.4938 -5.6052 6.7077 -9.2495 4.0303 42.9258 12.8779 -24.9608 -31.7031 -0.9171 -57.9336 -4.8196 0.0000 0.0000 13.5129 -18.9994 38.5053 -7.1494 0.0000 -0.0000 0.0000 -0.0000 -0.0000 -0.0000 8.7756 -6.7701 -37.8132 25.1393 27.9009 -45.8637 -0.0000 -0.0000 -55.6918 9.3220 -20.1486 -7.5288 0.0000 0.0000 -0.0000 -0.0000 0.0000 -0.0000 -45.8058 -4.4602 10.3637 48.3774 0.0000 0.0000 -11.8906 -8.3852 0.2731 6.8661 0.0000 0.0000 -10.1936 -13.7042 34.2514 54.7004 0.0000 0.0000 -30.5359 7.0809 15.6039 -11.4036 0.0000 -0.0000
 1.8365 -22.5337 34.1187 -5.4901 5.8390 123.5513 11.4371 4.0863 -4.2911 4.6365 2.3755 -1.1231 3.6389 -7.3845 -18.8268 2.2653 -0.8229 -0.9457 4.4016 -5.5794 6.6168 -9.3077 4.0645 42.8157 12.8272 -25.0598 -31.6596 -1.1428 -57.9633 -4.9771 0.0000 0.0000 13.4313 -18.9651 38.4454 -7.1793 -0.0000 0.0000 0.0000 0.0000 -0.0000 0.0000 8.8599 -6.6807 -37.6627 24.9226 28.0451 -45.4469 -0.0000 -0.0000 -55.5421 9.2935 -20.0310 -7.4830 0.0000 0.0000 -0.0000 -0.0000 0.0000 0.0000 -46.0855 -4.2819 10.3175 49.0187 0.0000 0.0000 -12.2959 -8.3610 -0.0731 6.8452 0.0000 0.0000 -10.4453 -13.8021 34.1036 55.1335 0.0000 0.0000 -30.6426 6.9142 15.3615 -11.1911 0.0000 -0.0000
 1.8662 -22.5412 34.0608 -5.4586 5.8901 124.0733 11.5005 4.0360 -4.2808 4.6585 2.3450 -1.1211 3.6592 -7.4294 -18.7756 2.2616 -0.8127 -0.9204 4.3072 -5.5506 6.5301 -9.3643 4.1052 42.7020 12.7671 -25.1558 -31.5853 -1.3999 -57.9453 -5.1498 0.0000 0.0000 13.3676 -18.9091 38.4008 -7.2130 0.0000 -0.0000 0.0000 0.0000 0.0000 0.0000 8.9427 -6.5627 -37.4745 24.6830 28.2104 -44.9776 -0.0000 -0.0000 -55.3818 9.2211 -19.9051 -7.4389 0.0000 0.0000 0.0000 0.0000 0.0000 0.0000 -46.3501 -4.0835 10.2415 49.6396 0.0000 0.0000 -12.6910 -8.3392 -0.4169 6.7985 0.0000 0.0000 -10.7015 -13.9164 33.9282 55.5692 0.0000 0.0000 -30.7001 6.7901 15.0359 -11.0103 0.0000 -0.0000
